<mxfile>
    <diagram id="R8Jl5CQtFqt2EqMDmD8Q" name="Produktpresentation">
        <mxGraphModel dx="1591" dy="719" grid="1" gridSize="10" guides="1" tooltips="1" connect="1" arrows="1" fold="1" page="1" pageScale="1" pageWidth="827" pageHeight="1169" math="0" shadow="0">
            <root>
                <mxCell id="0"/>
                <mxCell id="1" parent="0"/>
                <mxCell id="3ROZJ21ruriF3nKStgQi-135" style="edgeStyle=orthogonalEdgeStyle;rounded=0;orthogonalLoop=1;jettySize=auto;html=1;exitX=0.25;exitY=1;exitDx=0;exitDy=0;startArrow=none;startFill=0;endArrow=none;endFill=0;endSize=10;entryX=0.564;entryY=-0.025;entryDx=0;entryDy=0;entryPerimeter=0;" edge="1" parent="1" source="2" target="LKZn4vAuuxOfINN4DRll-142">
                    <mxGeometry relative="1" as="geometry"/>
                </mxCell>
                <mxCell id="3ROZJ21ruriF3nKStgQi-137" value="stellt zur Verfügung" style="edgeLabel;html=1;align=center;verticalAlign=middle;resizable=0;points=[];" vertex="1" connectable="0" parent="3ROZJ21ruriF3nKStgQi-135">
                    <mxGeometry x="0.0671" relative="1" as="geometry">
                        <mxPoint y="-8" as="offset"/>
                    </mxGeometry>
                </mxCell>
                <mxCell id="2" value="Produkt" style="swimlane;fontStyle=1;align=center;verticalAlign=top;childLayout=stackLayout;horizontal=1;startSize=70;horizontalStack=0;resizeParent=1;resizeParentMax=0;resizeLast=0;collapsible=1;marginBottom=0;" parent="1" vertex="1">
                    <mxGeometry x="106" y="266.18" width="108" height="30" as="geometry"/>
                </mxCell>
                <mxCell id="14" value="Seite" style="swimlane;fontStyle=1;align=center;verticalAlign=top;childLayout=stackLayout;horizontal=1;startSize=26;horizontalStack=0;resizeParent=1;resizeParentMax=0;resizeLast=0;collapsible=1;marginBottom=0;" vertex="1" parent="1">
                    <mxGeometry x="305" y="140" width="260" height="140" as="geometry"/>
                </mxCell>
                <mxCell id="15" value="Breite&#10;Höhe&#10;Beschnitt&#10;Falz&#10;Nichtdruckbare Bereiche&#10;Seitenrand&#10;Rückenbreite&#10;" style="text;strokeColor=none;fillColor=none;align=left;verticalAlign=top;spacingLeft=4;spacingRight=4;overflow=hidden;rotatable=0;points=[[0,0.5],[1,0.5]];portConstraint=eastwest;fontStyle=0" vertex="1" parent="14">
                    <mxGeometry y="26" width="260" height="114" as="geometry"/>
                </mxCell>
                <mxCell id="48" value="Produktbild" style="swimlane;fontStyle=1;align=center;verticalAlign=top;childLayout=stackLayout;horizontal=1;startSize=26;horizontalStack=0;resizeParent=1;resizeParentMax=0;resizeLast=0;collapsible=1;marginBottom=0;" vertex="1" parent="1">
                    <mxGeometry x="686" y="164" width="130" height="66" as="geometry"/>
                </mxCell>
                <mxCell id="49" value="Bilddatei&#10;Druckbereich auf Bild&#10;" style="text;strokeColor=none;fillColor=none;align=left;verticalAlign=top;spacingLeft=4;spacingRight=4;overflow=hidden;rotatable=0;points=[[0,0.5],[1,0.5]];portConstraint=eastwest;" vertex="1" parent="48">
                    <mxGeometry y="26" width="130" height="40" as="geometry"/>
                </mxCell>
                <mxCell id="59" value="Produkteigenschaft" style="swimlane;fontStyle=1;align=center;verticalAlign=top;childLayout=stackLayout;horizontal=1;startSize=80;horizontalStack=0;resizeParent=1;resizeParentMax=0;resizeLast=0;collapsible=1;marginBottom=0;" vertex="1" parent="1">
                    <mxGeometry x="390" y="340" width="130" height="30" as="geometry"/>
                </mxCell>
                <mxCell id="28" value="" style="endArrow=none;startArrow=none;endFill=0;startFill=0;html=1;verticalAlign=bottom;labelBackgroundColor=none;strokeWidth=1;startSize=8;endSize=10;entryX=-0.002;entryY=0.234;entryDx=0;entryDy=0;entryPerimeter=0;exitX=1;exitY=0.25;exitDx=0;exitDy=0;edgeStyle=orthogonalEdgeStyle;rounded=0;" edge="1" parent="1" source="2" target="15">
                    <mxGeometry width="160" relative="1" as="geometry">
                        <mxPoint x="214" y="260.86400000000003" as="sourcePoint"/>
                        <mxPoint x="114" y="208" as="targetPoint"/>
                        <Array as="points">
                            <mxPoint x="274" y="274"/>
                            <mxPoint x="274" y="205"/>
                            <mxPoint x="305" y="205"/>
                        </Array>
                    </mxGeometry>
                </mxCell>
                <mxCell id="3ROZJ21ruriF3nKStgQi-115" value="hat" style="edgeLabel;html=1;align=center;verticalAlign=middle;resizable=0;points=[];" vertex="1" connectable="0" parent="28">
                    <mxGeometry x="0.2633" y="-2" relative="1" as="geometry">
                        <mxPoint x="-30" y="41" as="offset"/>
                    </mxGeometry>
                </mxCell>
                <mxCell id="83" value="Produktgruppe" style="swimlane;fontStyle=1;align=center;verticalAlign=top;childLayout=stackLayout;horizontal=1;startSize=26;horizontalStack=0;resizeParent=1;resizeParentMax=0;resizeLast=0;collapsible=1;marginBottom=0;" vertex="1" parent="1">
                    <mxGeometry x="80" y="103" width="160" height="70" as="geometry"/>
                </mxCell>
                <mxCell id="84" value="Name&#10;DPI" style="text;strokeColor=none;fillColor=none;align=left;verticalAlign=top;spacingLeft=4;spacingRight=4;overflow=hidden;rotatable=0;points=[[0,0.5],[1,0.5]];portConstraint=eastwest;" vertex="1" parent="83">
                    <mxGeometry y="26" width="160" height="44" as="geometry"/>
                </mxCell>
                <mxCell id="87" value="" style="endArrow=none;startArrow=none;endFill=0;startFill=0;html=1;verticalAlign=bottom;labelBackgroundColor=none;strokeWidth=1;startSize=8;endSize=10;entryX=0.5;entryY=0;entryDx=0;entryDy=0;" edge="1" parent="1" source="84" target="2">
                    <mxGeometry width="160" relative="1" as="geometry">
                        <mxPoint x="224" y="290.5" as="sourcePoint"/>
                        <mxPoint x="354.31999999999994" y="502.69000000000005" as="targetPoint"/>
                    </mxGeometry>
                </mxCell>
                <mxCell id="88" value="*" style="text;html=1;align=center;verticalAlign=middle;resizable=0;points=[];autosize=1;strokeColor=none;" vertex="1" parent="1">
                    <mxGeometry x="144" y="253" width="20" height="20" as="geometry"/>
                </mxCell>
                <mxCell id="89" value="1" style="text;html=1;align=center;verticalAlign=middle;resizable=0;points=[];autosize=1;strokeColor=none;" vertex="1" parent="1">
                    <mxGeometry x="144" y="173" width="20" height="20" as="geometry"/>
                </mxCell>
                <mxCell id="65" value="" style="endArrow=none;startArrow=none;endFill=0;startFill=0;html=1;verticalAlign=bottom;labelBackgroundColor=none;strokeWidth=1;startSize=8;endSize=10;exitX=1;exitY=0.75;exitDx=0;exitDy=0;entryX=0;entryY=0.5;entryDx=0;entryDy=0;edgeStyle=orthogonalEdgeStyle;rounded=0;" edge="1" parent="1" source="2" target="59">
                    <mxGeometry width="160" relative="1" as="geometry">
                        <mxPoint x="214" y="288" as="sourcePoint"/>
                        <mxPoint x="305" y="353" as="targetPoint"/>
                        <Array as="points">
                            <mxPoint x="380" y="289"/>
                            <mxPoint x="380" y="353"/>
                            <mxPoint x="390" y="353"/>
                        </Array>
                    </mxGeometry>
                </mxCell>
                <mxCell id="3ROZJ21ruriF3nKStgQi-116" value="hat" style="edgeLabel;html=1;align=center;verticalAlign=middle;resizable=0;points=[];" vertex="1" connectable="0" parent="65">
                    <mxGeometry x="0.1471" y="1" relative="1" as="geometry">
                        <mxPoint x="-110" y="8" as="offset"/>
                    </mxGeometry>
                </mxCell>
                <mxCell id="108" value="Eigenschaftengruppe" style="swimlane;fontStyle=1;align=center;verticalAlign=top;childLayout=stackLayout;horizontal=1;startSize=49;horizontalStack=0;resizeParent=1;resizeParentMax=0;resizeLast=0;collapsible=1;marginBottom=0;" vertex="1" parent="1">
                    <mxGeometry x="651" y="308.91" width="160" height="24.09" as="geometry"/>
                </mxCell>
                <mxCell id="110" value="Eigenschaftenwert" style="swimlane;fontStyle=1;align=center;verticalAlign=top;childLayout=stackLayout;horizontal=1;startSize=50;horizontalStack=0;resizeParent=1;resizeParentMax=0;resizeLast=0;collapsible=1;marginBottom=0;" vertex="1" parent="1">
                    <mxGeometry x="649" y="350" width="160" height="28.91" as="geometry"/>
                </mxCell>
                <mxCell id="112" value="" style="endArrow=none;startArrow=none;endFill=0;startFill=0;html=1;verticalAlign=bottom;labelBackgroundColor=none;strokeWidth=1;startSize=8;endSize=10;exitX=1.117;exitY=0.088;exitDx=0;exitDy=0;entryX=1;entryY=0.25;entryDx=0;entryDy=0;edgeStyle=orthogonalEdgeStyle;rounded=0;exitPerimeter=0;" edge="1" parent="1" source="fVELq3aFtNu3C1duo9qW-113" target="59">
                    <mxGeometry width="160" relative="1" as="geometry">
                        <mxPoint x="605" y="322.0899999999999" as="sourcePoint"/>
                        <mxPoint x="503" y="332.318" as="targetPoint"/>
                        <Array as="points">
                            <mxPoint x="651" y="322"/>
                            <mxPoint x="550" y="322"/>
                            <mxPoint x="550" y="348"/>
                        </Array>
                    </mxGeometry>
                </mxCell>
                <mxCell id="3ROZJ21ruriF3nKStgQi-117" value="gehört zu" style="edgeLabel;html=1;align=center;verticalAlign=middle;resizable=0;points=[];" vertex="1" connectable="0" parent="112">
                    <mxGeometry x="-0.0664" y="-1" relative="1" as="geometry">
                        <mxPoint x="15" y="10" as="offset"/>
                    </mxGeometry>
                </mxCell>
                <mxCell id="113" value="" style="endArrow=none;startArrow=none;endFill=0;startFill=0;html=1;verticalAlign=bottom;labelBackgroundColor=none;strokeWidth=1;startSize=8;endSize=10;exitX=0;exitY=0.5;exitDx=0;exitDy=0;edgeStyle=orthogonalEdgeStyle;entryX=1;entryY=0.75;entryDx=0;entryDy=0;" edge="1" parent="1" source="110" target="59">
                    <mxGeometry width="160" relative="1" as="geometry">
                        <mxPoint x="604" y="418" as="sourcePoint"/>
                        <mxPoint x="505" y="380" as="targetPoint"/>
                        <Array as="points">
                            <mxPoint x="605" y="363"/>
                            <mxPoint x="546" y="363"/>
                        </Array>
                    </mxGeometry>
                </mxCell>
                <mxCell id="3ROZJ21ruriF3nKStgQi-121" value="hat" style="edgeLabel;html=1;align=center;verticalAlign=middle;resizable=0;points=[];" vertex="1" connectable="0" parent="113">
                    <mxGeometry x="0.0215" relative="1" as="geometry">
                        <mxPoint x="21" y="7" as="offset"/>
                    </mxGeometry>
                </mxCell>
                <mxCell id="fVELq3aFtNu3C1duo9qW-113" value="1" style="text;html=1;align=center;verticalAlign=middle;resizable=0;points=[];autosize=1;strokeColor=none;" vertex="1" parent="1">
                    <mxGeometry x="629" y="318.91" width="20" height="20" as="geometry"/>
                </mxCell>
                <mxCell id="fVELq3aFtNu3C1duo9qW-114" value="1" style="text;html=1;align=center;verticalAlign=middle;resizable=0;points=[];autosize=1;strokeColor=none;" vertex="1" parent="1">
                    <mxGeometry x="518" y="331.09" width="20" height="20" as="geometry"/>
                </mxCell>
                <mxCell id="fVELq3aFtNu3C1duo9qW-115" value="1" style="text;html=1;align=center;verticalAlign=middle;resizable=0;points=[];autosize=1;strokeColor=none;" vertex="1" parent="1">
                    <mxGeometry x="520" y="364.00000000000006" width="20" height="20" as="geometry"/>
                </mxCell>
                <mxCell id="fVELq3aFtNu3C1duo9qW-116" value="1" style="text;html=1;align=center;verticalAlign=middle;resizable=0;points=[];autosize=1;strokeColor=none;" vertex="1" parent="1">
                    <mxGeometry x="629" y="360.00000000000006" width="20" height="20" as="geometry"/>
                </mxCell>
                <mxCell id="LKZn4vAuuxOfINN4DRll-119" value="&lt;b&gt;Seitenpräsentation&lt;/b&gt;" style="html=1;" vertex="1" parent="1">
                    <mxGeometry x="378" y="20" width="114" height="40" as="geometry"/>
                </mxCell>
                <mxCell id="LKZn4vAuuxOfINN4DRll-120" value="" style="html=1;verticalAlign=bottom;labelBackgroundColor=none;endArrow=none;endFill=0;endSize=10;exitX=0.5;exitY=1;exitDx=0;exitDy=0;entryX=0.5;entryY=0;entryDx=0;entryDy=0;" edge="1" parent="1" source="LKZn4vAuuxOfINN4DRll-119" target="14">
                    <mxGeometry width="160" relative="1" as="geometry">
                        <mxPoint x="554" y="110" as="sourcePoint"/>
                        <mxPoint x="714" y="110" as="targetPoint"/>
                    </mxGeometry>
                </mxCell>
                <mxCell id="3ROZJ21ruriF3nKStgQi-119" value="basiert auf" style="edgeLabel;html=1;align=center;verticalAlign=middle;resizable=0;points=[];rotation=-90;" vertex="1" connectable="0" parent="LKZn4vAuuxOfINN4DRll-120">
                    <mxGeometry x="-0.1466" y="1" relative="1" as="geometry">
                        <mxPoint x="-10" y="2" as="offset"/>
                    </mxGeometry>
                </mxCell>
                <mxCell id="52" value="" style="endArrow=none;startArrow=none;endFill=0;startFill=0;html=1;verticalAlign=bottom;labelBackgroundColor=none;strokeWidth=1;startSize=8;endSize=8;exitX=0.999;exitY=0.317;exitDx=0;exitDy=0;exitPerimeter=0;edgeStyle=orthogonalEdgeStyle;rounded=0;" edge="1" parent="1" source="15" target="49">
                    <mxGeometry x="570" y="190" width="160" as="geometry">
                        <mxPoint x="670" y="344" as="sourcePoint"/>
                        <mxPoint x="830" y="344" as="targetPoint"/>
                        <Array as="points">
                            <mxPoint x="686" y="210"/>
                            <mxPoint x="686" y="210"/>
                        </Array>
                    </mxGeometry>
                </mxCell>
                <mxCell id="3ROZJ21ruriF3nKStgQi-120" value="besitzt" style="edgeLabel;html=1;align=center;verticalAlign=middle;resizable=0;points=[];" vertex="1" connectable="0" parent="52">
                    <mxGeometry relative="1" as="geometry">
                        <mxPoint x="-2" y="9" as="offset"/>
                    </mxGeometry>
                </mxCell>
                <mxCell id="53" value="1..*" style="text;html=1;align=center;verticalAlign=middle;resizable=0;points=[];autosize=1;strokeColor=none;" vertex="1" parent="1">
                    <mxGeometry x="560" y="194" width="30" height="20" as="geometry"/>
                </mxCell>
                <mxCell id="54" value="0..1" style="text;html=1;align=center;verticalAlign=middle;resizable=0;points=[];autosize=1;strokeColor=none;" vertex="1" parent="1">
                    <mxGeometry x="656" y="194" width="40" height="20" as="geometry"/>
                </mxCell>
                <mxCell id="66" value="1" style="text;align=center;fontStyle=0;verticalAlign=middle;spacingLeft=3;spacingRight=3;strokeColor=none;rotatable=0;points=[[0,0.5],[1,0.5]];portConstraint=eastwest;" vertex="1" parent="1">
                    <mxGeometry x="214" y="291.18" width="20" height="10.181818181818182" as="geometry"/>
                </mxCell>
                <mxCell id="73" value="1..*" style="text;align=center;fontStyle=0;verticalAlign=middle;spacingLeft=3;spacingRight=3;strokeColor=none;rotatable=0;points=[[0,0.5],[1,0.5]];portConstraint=eastwest;" vertex="1" parent="1">
                    <mxGeometry x="358" y="340.90818181818184" width="20" height="10.181818181818182" as="geometry"/>
                </mxCell>
                <mxCell id="30" value="1..*" style="text;align=center;fontStyle=0;verticalAlign=middle;spacingLeft=3;spacingRight=3;strokeColor=none;rotatable=0;points=[[0,0.5],[1,0.5]];portConstraint=eastwest;" vertex="1" parent="1">
                    <mxGeometry x="280" y="192" width="30" height="13" as="geometry"/>
                </mxCell>
                <mxCell id="LKZn4vAuuxOfINN4DRll-142" value="holProdukt(Produktgruppe, Produkteigenschaften): Produkt&#10;" style="swimlane;fontStyle=1;align=center;verticalAlign=top;childLayout=stackLayout;horizontal=1;startSize=34;horizontalStack=0;resizeParent=1;resizeParentMax=0;resizeLast=0;collapsible=1;marginBottom=0;" vertex="1" parent="1">
                    <mxGeometry x="40" y="380" width="348" height="30" as="geometry"/>
                </mxCell>
                <mxCell id="3ROZJ21ruriF3nKStgQi-113" value="1" style="text;html=1;align=center;verticalAlign=middle;resizable=0;points=[];autosize=1;strokeColor=none;" vertex="1" parent="1">
                    <mxGeometry x="214" y="257" width="20" height="20" as="geometry"/>
                </mxCell>
                <mxCell id="3ROZJ21ruriF3nKStgQi-122" value="" style="triangle;aspect=fixed;fillColor=#000000;rotation=-90;" vertex="1" parent="1">
                    <mxGeometry x="165" y="185" width="6" height="12" as="geometry"/>
                </mxCell>
                <mxCell id="3ROZJ21ruriF3nKStgQi-126" value="&lt;span style=&quot;font-size: 11px ; background-color: rgb(255 , 255 , 255)&quot;&gt;gehört zu&lt;/span&gt;" style="text;html=1;align=center;verticalAlign=middle;resizable=0;points=[];autosize=1;strokeColor=none;rotation=-90;" vertex="1" parent="1">
                    <mxGeometry x="138" y="216" width="60" height="20" as="geometry"/>
                </mxCell>
                <mxCell id="3ROZJ21ruriF3nKStgQi-127" value="" style="triangle;aspect=fixed;fillColor=#000000;rotation=0;" vertex="1" parent="1">
                    <mxGeometry x="616" y="364.00000000000006" width="6" height="12" as="geometry"/>
                </mxCell>
                <mxCell id="3ROZJ21ruriF3nKStgQi-128" value="" style="triangle;aspect=fixed;fillColor=#000000;rotation=0;" vertex="1" parent="1">
                    <mxGeometry x="620" y="326.00000000000006" width="6" height="12" as="geometry"/>
                </mxCell>
                <mxCell id="3ROZJ21ruriF3nKStgQi-130" value="" style="triangle;aspect=fixed;fillColor=#000000;rotation=90;" vertex="1" parent="1">
                    <mxGeometry x="424" y="124.00000000000003" width="6" height="12" as="geometry"/>
                </mxCell>
                <mxCell id="3ROZJ21ruriF3nKStgQi-132" value="" style="triangle;aspect=fixed;fillColor=#000000;rotation=0;" vertex="1" parent="1">
                    <mxGeometry x="661" y="216" width="6" height="12" as="geometry"/>
                </mxCell>
                <mxCell id="3ROZJ21ruriF3nKStgQi-133" value="" style="triangle;aspect=fixed;fillColor=#000000;rotation=0;" vertex="1" parent="1">
                    <mxGeometry x="261" y="261" width="6" height="12" as="geometry"/>
                </mxCell>
                <mxCell id="3ROZJ21ruriF3nKStgQi-134" value="" style="triangle;aspect=fixed;fillColor=#000000;rotation=0;" vertex="1" parent="1">
                    <mxGeometry x="261" y="290" width="6" height="12" as="geometry"/>
                </mxCell>
                <mxCell id="3ROZJ21ruriF3nKStgQi-138" value="" style="triangle;aspect=fixed;fillColor=#000000;rotation=-180;" vertex="1" parent="1">
                    <mxGeometry x="136" y="324.00000000000006" width="6" height="12" as="geometry"/>
                </mxCell>
                <mxCell id="pcVgRyq9SWeYD4dwbNtz-117" style="edgeStyle=orthogonalEdgeStyle;rounded=0;orthogonalLoop=1;jettySize=auto;html=1;exitX=0.5;exitY=0;exitDx=0;exitDy=0;entryX=1;entryY=0.25;entryDx=0;entryDy=0;startArrow=none;startFill=0;endArrow=none;endFill=0;endSize=10;" edge="1" parent="1" source="pcVgRyq9SWeYD4dwbNtz-114" target="LKZn4vAuuxOfINN4DRll-142">
                    <mxGeometry relative="1" as="geometry">
                        <Array as="points">
                            <mxPoint x="593" y="395"/>
                        </Array>
                    </mxGeometry>
                </mxCell>
                <mxCell id="pcVgRyq9SWeYD4dwbNtz-114" value="&lt;b&gt;Browser-URL&lt;/b&gt;" style="html=1;" vertex="1" parent="1">
                    <mxGeometry x="538" y="430" width="110" height="30" as="geometry"/>
                </mxCell>
                <mxCell id="pcVgRyq9SWeYD4dwbNtz-118" style="edgeStyle=orthogonalEdgeStyle;rounded=0;orthogonalLoop=1;jettySize=auto;html=1;exitX=0.5;exitY=0;exitDx=0;exitDy=0;startArrow=none;startFill=0;endArrow=none;endFill=0;endSize=10;entryX=1;entryY=0.25;entryDx=0;entryDy=0;" edge="1" parent="1" source="pcVgRyq9SWeYD4dwbNtz-115" target="LKZn4vAuuxOfINN4DRll-142">
                    <mxGeometry relative="1" as="geometry">
                        <mxPoint x="236" y="440" as="targetPoint"/>
                        <Array as="points">
                            <mxPoint x="732" y="395"/>
                        </Array>
                    </mxGeometry>
                </mxCell>
                <mxCell id="pcVgRyq9SWeYD4dwbNtz-121" value="basiert auf" style="edgeLabel;html=1;align=center;verticalAlign=middle;resizable=0;points=[];rotation=0;" vertex="1" connectable="0" parent="pcVgRyq9SWeYD4dwbNtz-118">
                    <mxGeometry x="0.2222" relative="1" as="geometry">
                        <mxPoint x="-91" y="8" as="offset"/>
                    </mxGeometry>
                </mxCell>
                <mxCell id="pcVgRyq9SWeYD4dwbNtz-115" value="&lt;b&gt;Produktkonfigurator&lt;/b&gt;" style="html=1;" vertex="1" parent="1">
                    <mxGeometry x="661" y="430" width="142" height="30" as="geometry"/>
                </mxCell>
                <mxCell id="pcVgRyq9SWeYD4dwbNtz-122" value="" style="triangle;aspect=fixed;fillColor=#000000;rotation=0;" vertex="1" parent="1">
                    <mxGeometry x="470" y="397" width="6" height="12" as="geometry"/>
                </mxCell>
            </root>
        </mxGraphModel>
    </diagram>
    <diagram id="m1vJnN9iK8uZdJuS278U" name="Design">
        <mxGraphModel dx="1591" dy="935" grid="1" gridSize="10" guides="1" tooltips="1" connect="1" arrows="1" fold="1" page="1" pageScale="1" pageWidth="827" pageHeight="1169" math="0" shadow="0">
            <root>
                <mxCell id="2xnOVREvFLB_lUJDa7KT-0"/>
                <mxCell id="2xnOVREvFLB_lUJDa7KT-1" parent="2xnOVREvFLB_lUJDa7KT-0"/>
                <mxCell id="0LVePBlqfKj34DUhiKUy-6" style="edgeStyle=orthogonalEdgeStyle;rounded=0;orthogonalLoop=1;jettySize=auto;html=1;exitX=0.5;exitY=1;exitDx=0;exitDy=0;entryX=0.5;entryY=0;entryDx=0;entryDy=0;startArrow=none;startFill=0;endArrow=none;endFill=0;endSize=10;" edge="1" parent="2xnOVREvFLB_lUJDa7KT-1" source="_BBtM1ZEClrVv9qaCddC-7" target="0LVePBlqfKj34DUhiKUy-0">
                    <mxGeometry relative="1" as="geometry"/>
                </mxCell>
                <mxCell id="_BBtM1ZEClrVv9qaCddC-7" value="Designseite Presentation" style="html=1;fontStyle=1" vertex="1" parent="2xnOVREvFLB_lUJDa7KT-1">
                    <mxGeometry x="365" y="270" width="160" height="50" as="geometry"/>
                </mxCell>
                <mxCell id="0LVePBlqfKj34DUhiKUy-1" style="edgeStyle=orthogonalEdgeStyle;rounded=0;orthogonalLoop=1;jettySize=auto;html=1;exitX=1;exitY=0.5;exitDx=0;exitDy=0;entryX=0;entryY=0.5;entryDx=0;entryDy=0;startArrow=none;startFill=0;endArrow=none;endFill=0;endSize=10;" edge="1" parent="2xnOVREvFLB_lUJDa7KT-1" source="KhfS7gPPCCPaNqj5bfZj-1" target="0LVePBlqfKj34DUhiKUy-0">
                    <mxGeometry relative="1" as="geometry"/>
                </mxCell>
                <mxCell id="eLnGJpbULJ3DvffsFiKu-49" style="edgeStyle=orthogonalEdgeStyle;rounded=0;jumpStyle=arc;jumpSize=8;orthogonalLoop=1;jettySize=auto;html=1;exitX=0.5;exitY=1;exitDx=0;exitDy=0;entryX=0.5;entryY=0;entryDx=0;entryDy=0;startArrow=none;startFill=0;endArrow=none;endFill=0;endSize=10;" edge="1" parent="2xnOVREvFLB_lUJDa7KT-1" source="KhfS7gPPCCPaNqj5bfZj-1" target="eLnGJpbULJ3DvffsFiKu-35">
                    <mxGeometry relative="1" as="geometry"/>
                </mxCell>
                <mxCell id="KhfS7gPPCCPaNqj5bfZj-1" value="&lt;b&gt;Design&lt;/b&gt;" style="html=1;" vertex="1" parent="2xnOVREvFLB_lUJDa7KT-1">
                    <mxGeometry x="180" y="420" width="110" height="30" as="geometry"/>
                </mxCell>
                <mxCell id="0LVePBlqfKj34DUhiKUy-3" style="edgeStyle=orthogonalEdgeStyle;rounded=0;orthogonalLoop=1;jettySize=auto;html=1;exitX=1;exitY=0.5;exitDx=0;exitDy=0;entryX=0;entryY=0.5;entryDx=0;entryDy=0;startArrow=none;startFill=0;endArrow=none;endFill=0;endSize=10;" edge="1" parent="2xnOVREvFLB_lUJDa7KT-1" source="0LVePBlqfKj34DUhiKUy-0" target="0LVePBlqfKj34DUhiKUy-2">
                    <mxGeometry relative="1" as="geometry"/>
                </mxCell>
                <mxCell id="0LVePBlqfKj34DUhiKUy-11" style="edgeStyle=orthogonalEdgeStyle;rounded=0;orthogonalLoop=1;jettySize=auto;html=1;exitX=0.75;exitY=1;exitDx=0;exitDy=0;entryX=0;entryY=0.5;entryDx=0;entryDy=0;startArrow=none;startFill=0;endArrow=none;endFill=0;endSize=10;" edge="1" parent="2xnOVREvFLB_lUJDa7KT-1" source="0LVePBlqfKj34DUhiKUy-0" target="PerpSiJX2z2ElGPY05Ku-22">
                    <mxGeometry relative="1" as="geometry">
                        <mxPoint x="570" y="505" as="targetPoint"/>
                    </mxGeometry>
                </mxCell>
                <mxCell id="PerpSiJX2z2ElGPY05Ku-18" style="edgeStyle=orthogonalEdgeStyle;rounded=0;jumpStyle=arc;jumpSize=8;orthogonalLoop=1;jettySize=auto;html=1;exitX=0.75;exitY=0;exitDx=0;exitDy=0;entryX=0.5;entryY=1;entryDx=0;entryDy=0;startArrow=none;startFill=0;endArrow=none;endFill=0;endSize=10;" edge="1" parent="2xnOVREvFLB_lUJDa7KT-1" source="0LVePBlqfKj34DUhiKUy-0" target="PerpSiJX2z2ElGPY05Ku-17">
                    <mxGeometry relative="1" as="geometry"/>
                </mxCell>
                <mxCell id="0LVePBlqfKj34DUhiKUy-0" value="&lt;b&gt;Designseite&lt;/b&gt;" style="html=1;" vertex="1" parent="2xnOVREvFLB_lUJDa7KT-1">
                    <mxGeometry x="390" y="420" width="110" height="30" as="geometry"/>
                </mxCell>
                <mxCell id="3dWni5qiD89zcJHUJ88k-36" style="edgeStyle=orthogonalEdgeStyle;rounded=0;jumpStyle=arc;jumpSize=8;orthogonalLoop=1;jettySize=auto;html=1;exitX=1;exitY=0.5;exitDx=0;exitDy=0;entryX=0;entryY=0.5;entryDx=0;entryDy=0;startArrow=none;startFill=0;endArrow=none;endFill=0;endSize=10;" edge="1" parent="2xnOVREvFLB_lUJDa7KT-1" source="0LVePBlqfKj34DUhiKUy-2" target="3dWni5qiD89zcJHUJ88k-12">
                    <mxGeometry relative="1" as="geometry"/>
                </mxCell>
                <mxCell id="0LVePBlqfKj34DUhiKUy-2" value="&lt;b&gt;Hintergrund&lt;/b&gt;" style="html=1;" vertex="1" parent="2xnOVREvFLB_lUJDa7KT-1">
                    <mxGeometry x="570" y="420" width="110" height="30" as="geometry"/>
                </mxCell>
                <mxCell id="3dWni5qiD89zcJHUJ88k-31" style="edgeStyle=orthogonalEdgeStyle;rounded=0;jumpStyle=arc;jumpSize=8;orthogonalLoop=1;jettySize=auto;html=1;exitX=0;exitY=0.5;exitDx=0;exitDy=0;entryX=1;entryY=0.25;entryDx=0;entryDy=0;startArrow=none;startFill=0;endArrow=none;endFill=0;endSize=10;" edge="1" parent="2xnOVREvFLB_lUJDa7KT-1" source="0LVePBlqfKj34DUhiKUy-4" target="3dWni5qiD89zcJHUJ88k-12">
                    <mxGeometry relative="1" as="geometry"/>
                </mxCell>
                <mxCell id="3dWni5qiD89zcJHUJ88k-49" style="edgeStyle=orthogonalEdgeStyle;rounded=0;jumpStyle=arc;jumpSize=8;orthogonalLoop=1;jettySize=auto;html=1;exitX=1;exitY=0.5;exitDx=0;exitDy=0;entryX=1;entryY=0.5;entryDx=0;entryDy=0;startArrow=none;startFill=0;endArrow=none;endFill=0;endSize=10;" edge="1" parent="2xnOVREvFLB_lUJDa7KT-1" source="0LVePBlqfKj34DUhiKUy-4" target="0LVePBlqfKj34DUhiKUy-5">
                    <mxGeometry relative="1" as="geometry"/>
                </mxCell>
                <mxCell id="0LVePBlqfKj34DUhiKUy-4" value="&lt;b&gt;Verlaufaufsfarbe&lt;/b&gt;" style="html=1;" vertex="1" parent="2xnOVREvFLB_lUJDa7KT-1">
                    <mxGeometry x="1020" y="413" width="110" height="30" as="geometry"/>
                </mxCell>
                <mxCell id="3dWni5qiD89zcJHUJ88k-29" style="edgeStyle=orthogonalEdgeStyle;rounded=0;jumpStyle=arc;jumpSize=8;orthogonalLoop=1;jettySize=auto;html=1;exitX=0.25;exitY=1;exitDx=0;exitDy=0;startArrow=none;startFill=0;endArrow=none;endFill=0;endSize=10;" edge="1" parent="2xnOVREvFLB_lUJDa7KT-1" source="0LVePBlqfKj34DUhiKUy-5" target="3dWni5qiD89zcJHUJ88k-22">
                    <mxGeometry relative="1" as="geometry">
                        <Array as="points">
                            <mxPoint x="1048" y="510"/>
                            <mxPoint x="1040" y="510"/>
                        </Array>
                    </mxGeometry>
                </mxCell>
                <mxCell id="3dWni5qiD89zcJHUJ88k-30" style="edgeStyle=orthogonalEdgeStyle;rounded=0;jumpStyle=arc;jumpSize=8;orthogonalLoop=1;jettySize=auto;html=1;exitX=0;exitY=0.5;exitDx=0;exitDy=0;entryX=1;entryY=0.75;entryDx=0;entryDy=0;startArrow=none;startFill=0;endArrow=none;endFill=0;endSize=10;" edge="1" parent="2xnOVREvFLB_lUJDa7KT-1" source="0LVePBlqfKj34DUhiKUy-5" target="3dWni5qiD89zcJHUJ88k-12">
                    <mxGeometry relative="1" as="geometry">
                        <Array as="points">
                            <mxPoint x="1000" y="498"/>
                            <mxPoint x="1000" y="443"/>
                        </Array>
                    </mxGeometry>
                </mxCell>
                <mxCell id="eLnGJpbULJ3DvffsFiKu-10" style="edgeStyle=orthogonalEdgeStyle;rounded=0;jumpStyle=arc;jumpSize=8;orthogonalLoop=1;jettySize=auto;html=1;exitX=0.75;exitY=1;exitDx=0;exitDy=0;entryX=1;entryY=0.75;entryDx=0;entryDy=0;startArrow=none;startFill=0;endArrow=none;endFill=0;endSize=10;" edge="1" parent="2xnOVREvFLB_lUJDa7KT-1" source="0LVePBlqfKj34DUhiKUy-5" target="3dWni5qiD89zcJHUJ88k-3">
                    <mxGeometry relative="1" as="geometry"/>
                </mxCell>
                <mxCell id="eLnGJpbULJ3DvffsFiKu-11" style="edgeStyle=orthogonalEdgeStyle;rounded=0;jumpStyle=arc;jumpSize=8;orthogonalLoop=1;jettySize=auto;html=1;exitX=0.75;exitY=1;exitDx=0;exitDy=0;entryX=1;entryY=0.5;entryDx=0;entryDy=0;startArrow=none;startFill=0;endArrow=none;endFill=0;endSize=10;" edge="1" parent="2xnOVREvFLB_lUJDa7KT-1" source="0LVePBlqfKj34DUhiKUy-5" target="3dWni5qiD89zcJHUJ88k-1">
                    <mxGeometry relative="1" as="geometry"/>
                </mxCell>
                <mxCell id="0LVePBlqfKj34DUhiKUy-5" value="&lt;b&gt;Farbe&lt;br&gt;&lt;/b&gt;" style="html=1;" vertex="1" parent="2xnOVREvFLB_lUJDa7KT-1">
                    <mxGeometry x="1020" y="483" width="110" height="30" as="geometry"/>
                </mxCell>
                <mxCell id="3dWni5qiD89zcJHUJ88k-11" style="edgeStyle=orthogonalEdgeStyle;rounded=0;orthogonalLoop=1;jettySize=auto;html=1;exitX=0;exitY=0.25;exitDx=0;exitDy=0;entryX=0.553;entryY=1.053;entryDx=0;entryDy=0;startArrow=none;startFill=0;endArrow=block;endFill=0;endSize=10;entryPerimeter=0;" edge="1" parent="2xnOVREvFLB_lUJDa7KT-1" source="0LVePBlqfKj34DUhiKUy-12" target="PerpSiJX2z2ElGPY05Ku-22">
                    <mxGeometry relative="1" as="geometry">
                        <mxPoint x="625" y="530" as="targetPoint"/>
                    </mxGeometry>
                </mxCell>
                <mxCell id="0LVePBlqfKj34DUhiKUy-12" value="&lt;b&gt;Rechteck&lt;/b&gt;" style="html=1;" vertex="1" parent="2xnOVREvFLB_lUJDa7KT-1">
                    <mxGeometry x="650" y="600" width="110" height="30" as="geometry"/>
                </mxCell>
                <mxCell id="3dWni5qiD89zcJHUJ88k-6" style="edgeStyle=orthogonalEdgeStyle;rounded=0;orthogonalLoop=1;jettySize=auto;html=1;exitX=0;exitY=0.5;exitDx=0;exitDy=0;startArrow=none;startFill=0;endArrow=block;endFill=0;endSize=10;" edge="1" parent="2xnOVREvFLB_lUJDa7KT-1" source="3dWni5qiD89zcJHUJ88k-0">
                    <mxGeometry relative="1" as="geometry">
                        <mxPoint x="720" y="520" as="targetPoint"/>
                        <Array as="points">
                            <mxPoint x="650" y="615"/>
                            <mxPoint x="720" y="615"/>
                        </Array>
                    </mxGeometry>
                </mxCell>
                <mxCell id="3dWni5qiD89zcJHUJ88k-0" value="&lt;b&gt;Ellipse&lt;/b&gt;" style="html=1;" vertex="1" parent="2xnOVREvFLB_lUJDa7KT-1">
                    <mxGeometry x="650" y="650" width="110" height="30" as="geometry"/>
                </mxCell>
                <mxCell id="3dWni5qiD89zcJHUJ88k-7" style="edgeStyle=orthogonalEdgeStyle;rounded=0;orthogonalLoop=1;jettySize=auto;html=1;exitX=0;exitY=0.5;exitDx=0;exitDy=0;startArrow=none;startFill=0;endArrow=block;endFill=0;endSize=10;" edge="1" parent="2xnOVREvFLB_lUJDa7KT-1" source="3dWni5qiD89zcJHUJ88k-1">
                    <mxGeometry relative="1" as="geometry">
                        <mxPoint x="560" y="610" as="targetPoint"/>
                        <Array as="points">
                            <mxPoint x="625" y="965"/>
                        </Array>
                    </mxGeometry>
                </mxCell>
                <mxCell id="3dWni5qiD89zcJHUJ88k-1" value="&lt;span&gt;Linie&lt;/span&gt;" style="html=1;fontStyle=1" vertex="1" parent="2xnOVREvFLB_lUJDa7KT-1">
                    <mxGeometry x="650" y="950" width="110" height="30" as="geometry"/>
                </mxCell>
                <mxCell id="3dWni5qiD89zcJHUJ88k-8" style="edgeStyle=orthogonalEdgeStyle;rounded=0;orthogonalLoop=1;jettySize=auto;html=1;exitX=0;exitY=0.25;exitDx=0;exitDy=0;startArrow=none;startFill=0;endArrow=block;endFill=0;endSize=10;" edge="1" parent="2xnOVREvFLB_lUJDa7KT-1" source="3dWni5qiD89zcJHUJ88k-2">
                    <mxGeometry relative="1" as="geometry">
                        <mxPoint x="690" y="550" as="targetPoint"/>
                        <Array as="points">
                            <mxPoint x="625" y="668"/>
                        </Array>
                    </mxGeometry>
                </mxCell>
                <mxCell id="3dWni5qiD89zcJHUJ88k-2" value="Polygon" style="html=1;fontStyle=1" vertex="1" parent="2xnOVREvFLB_lUJDa7KT-1">
                    <mxGeometry x="650" y="700" width="110" height="30" as="geometry"/>
                </mxCell>
                <mxCell id="3dWni5qiD89zcJHUJ88k-9" style="edgeStyle=orthogonalEdgeStyle;rounded=0;orthogonalLoop=1;jettySize=auto;html=1;exitX=0;exitY=0.5;exitDx=0;exitDy=0;startArrow=none;startFill=0;endArrow=block;endFill=0;endSize=10;" edge="1" parent="2xnOVREvFLB_lUJDa7KT-1" source="3dWni5qiD89zcJHUJ88k-3">
                    <mxGeometry relative="1" as="geometry">
                        <mxPoint x="570" y="560" as="targetPoint"/>
                        <Array as="points">
                            <mxPoint x="625" y="915"/>
                        </Array>
                    </mxGeometry>
                </mxCell>
                <mxCell id="eLnGJpbULJ3DvffsFiKu-52" style="edgeStyle=orthogonalEdgeStyle;rounded=0;jumpStyle=arc;jumpSize=8;orthogonalLoop=1;jettySize=auto;html=1;exitX=1;exitY=0.25;exitDx=0;exitDy=0;startArrow=none;startFill=0;endArrow=none;endFill=0;endSize=10;" edge="1" parent="2xnOVREvFLB_lUJDa7KT-1" source="3dWni5qiD89zcJHUJ88k-3" target="eLnGJpbULJ3DvffsFiKu-51">
                    <mxGeometry relative="1" as="geometry"/>
                </mxCell>
                <mxCell id="3dWni5qiD89zcJHUJ88k-3" value="Text" style="html=1;fontStyle=1" vertex="1" parent="2xnOVREvFLB_lUJDa7KT-1">
                    <mxGeometry x="650" y="900" width="110" height="30" as="geometry"/>
                </mxCell>
                <mxCell id="3dWni5qiD89zcJHUJ88k-10" style="edgeStyle=orthogonalEdgeStyle;rounded=0;orthogonalLoop=1;jettySize=auto;html=1;exitX=0;exitY=0.5;exitDx=0;exitDy=0;startArrow=none;startFill=0;endArrow=block;endFill=0;endSize=10;" edge="1" parent="2xnOVREvFLB_lUJDa7KT-1" source="3dWni5qiD89zcJHUJ88k-4">
                    <mxGeometry relative="1" as="geometry">
                        <mxPoint x="550" y="570" as="targetPoint"/>
                        <Array as="points">
                            <mxPoint x="625" y="865"/>
                        </Array>
                    </mxGeometry>
                </mxCell>
                <mxCell id="3dWni5qiD89zcJHUJ88k-4" value="Bild" style="html=1;fontStyle=1" vertex="1" parent="2xnOVREvFLB_lUJDa7KT-1">
                    <mxGeometry x="650" y="850" width="110" height="30" as="geometry"/>
                </mxCell>
                <mxCell id="3dWni5qiD89zcJHUJ88k-37" style="edgeStyle=orthogonalEdgeStyle;rounded=0;jumpStyle=arc;jumpSize=8;orthogonalLoop=1;jettySize=auto;html=1;exitX=0.25;exitY=1;exitDx=0;exitDy=0;entryX=0.75;entryY=0;entryDx=0;entryDy=0;startArrow=none;startFill=0;endArrow=none;endFill=0;endSize=10;" edge="1" parent="2xnOVREvFLB_lUJDa7KT-1" source="3dWni5qiD89zcJHUJ88k-12" target="0LVePBlqfKj34DUhiKUy-12">
                    <mxGeometry relative="1" as="geometry">
                        <Array as="points">
                            <mxPoint x="818" y="550"/>
                            <mxPoint x="733" y="550"/>
                        </Array>
                    </mxGeometry>
                </mxCell>
                <mxCell id="3dWni5qiD89zcJHUJ88k-38" style="edgeStyle=orthogonalEdgeStyle;rounded=0;jumpStyle=arc;jumpSize=8;orthogonalLoop=1;jettySize=auto;html=1;exitX=0.25;exitY=1;exitDx=0;exitDy=0;entryX=0.75;entryY=0;entryDx=0;entryDy=0;startArrow=none;startFill=0;endArrow=none;endFill=0;endSize=10;" edge="1" parent="2xnOVREvFLB_lUJDa7KT-1" source="3dWni5qiD89zcJHUJ88k-12" target="3dWni5qiD89zcJHUJ88k-0">
                    <mxGeometry relative="1" as="geometry">
                        <Array as="points">
                            <mxPoint x="818" y="600"/>
                            <mxPoint x="733" y="600"/>
                        </Array>
                    </mxGeometry>
                </mxCell>
                <mxCell id="3dWni5qiD89zcJHUJ88k-40" style="edgeStyle=orthogonalEdgeStyle;rounded=0;jumpStyle=arc;jumpSize=8;orthogonalLoop=1;jettySize=auto;html=1;exitX=0.25;exitY=1;exitDx=0;exitDy=0;entryX=0.75;entryY=0;entryDx=0;entryDy=0;startArrow=none;startFill=0;endArrow=none;endFill=0;endSize=10;" edge="1" parent="2xnOVREvFLB_lUJDa7KT-1" source="3dWni5qiD89zcJHUJ88k-12" target="3dWni5qiD89zcJHUJ88k-2">
                    <mxGeometry relative="1" as="geometry">
                        <Array as="points">
                            <mxPoint x="818" y="650"/>
                            <mxPoint x="733" y="650"/>
                        </Array>
                    </mxGeometry>
                </mxCell>
                <mxCell id="3dWni5qiD89zcJHUJ88k-41" style="edgeStyle=orthogonalEdgeStyle;rounded=0;jumpStyle=arc;jumpSize=8;orthogonalLoop=1;jettySize=auto;html=1;exitX=0.25;exitY=1;exitDx=0;exitDy=0;entryX=0.75;entryY=0;entryDx=0;entryDy=0;startArrow=none;startFill=0;endArrow=none;endFill=0;endSize=10;" edge="1" parent="2xnOVREvFLB_lUJDa7KT-1" source="3dWni5qiD89zcJHUJ88k-12" target="3dWni5qiD89zcJHUJ88k-4">
                    <mxGeometry relative="1" as="geometry">
                        <Array as="points">
                            <mxPoint x="818" y="840"/>
                            <mxPoint x="733" y="840"/>
                        </Array>
                    </mxGeometry>
                </mxCell>
                <mxCell id="3dWni5qiD89zcJHUJ88k-12" value="&lt;b&gt;Füllfarbe&lt;/b&gt;" style="html=1;" vertex="1" parent="2xnOVREvFLB_lUJDa7KT-1">
                    <mxGeometry x="790" y="420" width="110" height="30" as="geometry"/>
                </mxCell>
                <mxCell id="3dWni5qiD89zcJHUJ88k-44" style="edgeStyle=orthogonalEdgeStyle;rounded=0;jumpStyle=arc;jumpSize=8;orthogonalLoop=1;jettySize=auto;html=1;exitX=0;exitY=0.5;exitDx=0;exitDy=0;entryX=1;entryY=0.5;entryDx=0;entryDy=0;startArrow=none;startFill=0;endArrow=none;endFill=0;endSize=10;" edge="1" parent="2xnOVREvFLB_lUJDa7KT-1" source="3dWni5qiD89zcJHUJ88k-22" target="0LVePBlqfKj34DUhiKUy-12">
                    <mxGeometry relative="1" as="geometry">
                        <Array as="points">
                            <mxPoint x="880" y="585"/>
                            <mxPoint x="880" y="575"/>
                        </Array>
                    </mxGeometry>
                </mxCell>
                <mxCell id="3dWni5qiD89zcJHUJ88k-45" style="edgeStyle=orthogonalEdgeStyle;rounded=0;jumpStyle=arc;jumpSize=8;orthogonalLoop=1;jettySize=auto;html=1;exitX=0;exitY=0.5;exitDx=0;exitDy=0;entryX=1;entryY=0.5;entryDx=0;entryDy=0;startArrow=none;startFill=0;endArrow=none;endFill=0;endSize=10;" edge="1" parent="2xnOVREvFLB_lUJDa7KT-1" source="3dWni5qiD89zcJHUJ88k-22" target="3dWni5qiD89zcJHUJ88k-0">
                    <mxGeometry relative="1" as="geometry">
                        <Array as="points">
                            <mxPoint x="880" y="585"/>
                            <mxPoint x="880" y="625"/>
                        </Array>
                    </mxGeometry>
                </mxCell>
                <mxCell id="3dWni5qiD89zcJHUJ88k-46" style="edgeStyle=orthogonalEdgeStyle;rounded=0;jumpStyle=arc;jumpSize=8;orthogonalLoop=1;jettySize=auto;html=1;exitX=0;exitY=0.5;exitDx=0;exitDy=0;entryX=1;entryY=0.5;entryDx=0;entryDy=0;startArrow=none;startFill=0;endArrow=none;endFill=0;endSize=10;" edge="1" parent="2xnOVREvFLB_lUJDa7KT-1" source="3dWni5qiD89zcJHUJ88k-22" target="3dWni5qiD89zcJHUJ88k-2">
                    <mxGeometry relative="1" as="geometry">
                        <Array as="points">
                            <mxPoint x="880" y="585"/>
                            <mxPoint x="880" y="675"/>
                        </Array>
                    </mxGeometry>
                </mxCell>
                <mxCell id="3dWni5qiD89zcJHUJ88k-47" style="edgeStyle=orthogonalEdgeStyle;rounded=0;jumpStyle=arc;jumpSize=8;orthogonalLoop=1;jettySize=auto;html=1;exitX=0;exitY=0.5;exitDx=0;exitDy=0;entryX=1;entryY=0.75;entryDx=0;entryDy=0;startArrow=none;startFill=0;endArrow=none;endFill=0;endSize=10;" edge="1" parent="2xnOVREvFLB_lUJDa7KT-1" source="3dWni5qiD89zcJHUJ88k-22" target="3dWni5qiD89zcJHUJ88k-4">
                    <mxGeometry relative="1" as="geometry">
                        <Array as="points">
                            <mxPoint x="880" y="585"/>
                            <mxPoint x="880" y="873"/>
                        </Array>
                    </mxGeometry>
                </mxCell>
                <mxCell id="3dWni5qiD89zcJHUJ88k-22" value="&lt;b&gt;Umrahmung&lt;/b&gt;" style="html=1;" vertex="1" parent="2xnOVREvFLB_lUJDa7KT-1">
                    <mxGeometry x="990" y="570" width="100" height="30" as="geometry"/>
                </mxCell>
                <mxCell id="qLCuyh_SuOUiccrAn6eA-0" value="" style="triangle;aspect=fixed;fillColor=#000000;rotation=0;" vertex="1" parent="2xnOVREvFLB_lUJDa7KT-1">
                    <mxGeometry x="348" y="420" width="6" height="12" as="geometry"/>
                </mxCell>
                <mxCell id="qLCuyh_SuOUiccrAn6eA-1" value="hat" style="text;html=1;align=center;verticalAlign=middle;resizable=0;points=[];autosize=1;strokeColor=none;" vertex="1" parent="2xnOVREvFLB_lUJDa7KT-1">
                    <mxGeometry x="318" y="416" width="30" height="20" as="geometry"/>
                </mxCell>
                <mxCell id="qLCuyh_SuOUiccrAn6eA-2" value="basiert auf" style="text;html=1;align=center;verticalAlign=middle;resizable=0;points=[];autosize=1;strokeColor=none;rotation=-90;" vertex="1" parent="2xnOVREvFLB_lUJDa7KT-1">
                    <mxGeometry x="420" y="360" width="70" height="20" as="geometry"/>
                </mxCell>
                <mxCell id="qLCuyh_SuOUiccrAn6eA-3" value="" style="triangle;aspect=fixed;fillColor=#000000;rotation=90;" vertex="1" parent="2xnOVREvFLB_lUJDa7KT-1">
                    <mxGeometry x="452" y="399" width="6" height="12" as="geometry"/>
                </mxCell>
                <mxCell id="qLCuyh_SuOUiccrAn6eA-4" value="" style="triangle;aspect=fixed;fillColor=#000000;rotation=0;" vertex="1" parent="2xnOVREvFLB_lUJDa7KT-1">
                    <mxGeometry x="540" y="422" width="6" height="12" as="geometry"/>
                </mxCell>
                <mxCell id="qLCuyh_SuOUiccrAn6eA-5" value="hat" style="text;html=1;align=center;verticalAlign=middle;resizable=0;points=[];autosize=1;strokeColor=none;" vertex="1" parent="2xnOVREvFLB_lUJDa7KT-1">
                    <mxGeometry x="511" y="418" width="30" height="20" as="geometry"/>
                </mxCell>
                <mxCell id="qLCuyh_SuOUiccrAn6eA-6" value="enthält" style="text;html=1;align=center;verticalAlign=middle;resizable=0;points=[];autosize=1;strokeColor=none;" vertex="1" parent="2xnOVREvFLB_lUJDa7KT-1">
                    <mxGeometry x="474" y="513" width="50" height="20" as="geometry"/>
                </mxCell>
                <mxCell id="qLCuyh_SuOUiccrAn6eA-7" value="" style="triangle;aspect=fixed;fillColor=#000000;rotation=0;" vertex="1" parent="2xnOVREvFLB_lUJDa7KT-1">
                    <mxGeometry x="524" y="517" width="6" height="12" as="geometry"/>
                </mxCell>
                <mxCell id="eLnGJpbULJ3DvffsFiKu-0" value="" style="triangle;aspect=fixed;fillColor=#000000;rotation=0;" vertex="1" parent="2xnOVREvFLB_lUJDa7KT-1">
                    <mxGeometry x="730" y="422" width="6" height="12" as="geometry"/>
                </mxCell>
                <mxCell id="eLnGJpbULJ3DvffsFiKu-1" value="hat" style="text;html=1;align=center;verticalAlign=middle;resizable=0;points=[];autosize=1;strokeColor=none;" vertex="1" parent="2xnOVREvFLB_lUJDa7KT-1">
                    <mxGeometry x="700" y="418" width="30" height="20" as="geometry"/>
                </mxCell>
                <mxCell id="eLnGJpbULJ3DvffsFiKu-3" value="verwendet" style="text;html=1;align=center;verticalAlign=middle;resizable=0;points=[];autosize=1;strokeColor=none;" vertex="1" parent="2xnOVREvFLB_lUJDa7KT-1">
                    <mxGeometry x="904" y="411" width="70" height="20" as="geometry"/>
                </mxCell>
                <mxCell id="eLnGJpbULJ3DvffsFiKu-5" value="" style="triangle;aspect=fixed;fillColor=#000000;rotation=0;" vertex="1" parent="2xnOVREvFLB_lUJDa7KT-1">
                    <mxGeometry x="974" y="413" width="6" height="12" as="geometry"/>
                </mxCell>
                <mxCell id="eLnGJpbULJ3DvffsFiKu-6" value="verwendet" style="text;html=1;align=center;verticalAlign=middle;resizable=0;points=[];autosize=1;strokeColor=none;" vertex="1" parent="2xnOVREvFLB_lUJDa7KT-1">
                    <mxGeometry x="904" y="443" width="70" height="20" as="geometry"/>
                </mxCell>
                <mxCell id="eLnGJpbULJ3DvffsFiKu-7" value="" style="triangle;aspect=fixed;fillColor=#000000;rotation=0;" vertex="1" parent="2xnOVREvFLB_lUJDa7KT-1">
                    <mxGeometry x="974" y="445" width="6" height="12" as="geometry"/>
                </mxCell>
                <mxCell id="eLnGJpbULJ3DvffsFiKu-8" value="hat" style="text;html=1;align=center;verticalAlign=middle;resizable=0;points=[];autosize=1;strokeColor=none;" vertex="1" parent="2xnOVREvFLB_lUJDa7KT-1">
                    <mxGeometry x="924" y="565" width="30" height="20" as="geometry"/>
                </mxCell>
                <mxCell id="eLnGJpbULJ3DvffsFiKu-9" value="" style="triangle;aspect=fixed;fillColor=#000000;rotation=0;" vertex="1" parent="2xnOVREvFLB_lUJDa7KT-1">
                    <mxGeometry x="953" y="567" width="6" height="12" as="geometry"/>
                </mxCell>
                <mxCell id="eLnGJpbULJ3DvffsFiKu-12" value="hat" style="text;html=1;align=center;verticalAlign=middle;resizable=0;points=[];autosize=1;strokeColor=none;rotation=-90;" vertex="1" parent="2xnOVREvFLB_lUJDa7KT-1">
                    <mxGeometry x="810" y="500" width="30" height="20" as="geometry"/>
                </mxCell>
                <mxCell id="eLnGJpbULJ3DvffsFiKu-13" value="" style="triangle;aspect=fixed;fillColor=#000000;rotation=-90;" vertex="1" parent="2xnOVREvFLB_lUJDa7KT-1">
                    <mxGeometry x="823" y="488" width="6" height="12" as="geometry"/>
                </mxCell>
                <mxCell id="eLnGJpbULJ3DvffsFiKu-16" value="" style="triangle;aspect=fixed;fillColor=#000000;rotation=-90;" vertex="1" parent="2xnOVREvFLB_lUJDa7KT-1">
                    <mxGeometry x="1110" y="619" width="6" height="12" as="geometry"/>
                </mxCell>
                <mxCell id="eLnGJpbULJ3DvffsFiKu-17" value="hat" style="text;html=1;align=center;verticalAlign=middle;resizable=0;points=[];autosize=1;strokeColor=none;rotation=-90;" vertex="1" parent="2xnOVREvFLB_lUJDa7KT-1">
                    <mxGeometry x="1098" y="631" width="30" height="20" as="geometry"/>
                </mxCell>
                <mxCell id="eLnGJpbULJ3DvffsFiKu-21" value="" style="triangle;aspect=fixed;fillColor=#000000;rotation=-90;" vertex="1" parent="2xnOVREvFLB_lUJDa7KT-1">
                    <mxGeometry x="1046" y="528" width="6" height="12" as="geometry"/>
                </mxCell>
                <mxCell id="eLnGJpbULJ3DvffsFiKu-22" value="hat" style="text;html=1;align=center;verticalAlign=middle;resizable=0;points=[];autosize=1;strokeColor=none;rotation=-90;" vertex="1" parent="2xnOVREvFLB_lUJDa7KT-1">
                    <mxGeometry x="1034" y="540" width="30" height="20" as="geometry"/>
                </mxCell>
                <mxCell id="eLnGJpbULJ3DvffsFiKu-24" value="verwendet" style="text;html=1;align=center;verticalAlign=middle;resizable=0;points=[];autosize=1;strokeColor=none;rotation=-90;" vertex="1" parent="2xnOVREvFLB_lUJDa7KT-1">
                    <mxGeometry x="1130" y="450" width="70" height="20" as="geometry"/>
                </mxCell>
                <mxCell id="eLnGJpbULJ3DvffsFiKu-25" value="" style="triangle;aspect=fixed;fillColor=#000000;rotation=90;" vertex="1" parent="2xnOVREvFLB_lUJDa7KT-1">
                    <mxGeometry x="1162" y="490" width="6" height="12" as="geometry"/>
                </mxCell>
                <mxCell id="eLnGJpbULJ3DvffsFiKu-33" style="edgeStyle=orthogonalEdgeStyle;rounded=0;jumpStyle=arc;jumpSize=8;orthogonalLoop=1;jettySize=auto;html=1;exitX=0;exitY=0.5;exitDx=0;exitDy=0;startArrow=none;startFill=0;endArrow=block;endFill=0;endSize=10;" edge="1" parent="2xnOVREvFLB_lUJDa7KT-1" source="eLnGJpbULJ3DvffsFiKu-32">
                    <mxGeometry relative="1" as="geometry">
                        <mxPoint x="600" y="550" as="targetPoint"/>
                    </mxGeometry>
                </mxCell>
                <mxCell id="eLnGJpbULJ3DvffsFiKu-50" style="edgeStyle=orthogonalEdgeStyle;rounded=0;jumpStyle=arc;jumpSize=8;orthogonalLoop=1;jettySize=auto;html=1;exitX=0.5;exitY=1;exitDx=0;exitDy=0;entryX=0.5;entryY=0.977;entryDx=0;entryDy=0;entryPerimeter=0;startArrow=none;startFill=0;endArrow=none;endFill=0;endSize=10;" edge="1" parent="2xnOVREvFLB_lUJDa7KT-1" source="eLnGJpbULJ3DvffsFiKu-32" target="eLnGJpbULJ3DvffsFiKu-36">
                    <mxGeometry relative="1" as="geometry"/>
                </mxCell>
                <mxCell id="eLnGJpbULJ3DvffsFiKu-32" value="&lt;span&gt;Kalendarium&lt;/span&gt;" style="html=1;fontStyle=1" vertex="1" parent="2xnOVREvFLB_lUJDa7KT-1">
                    <mxGeometry x="650" y="1000" width="110" height="30" as="geometry"/>
                </mxCell>
                <mxCell id="eLnGJpbULJ3DvffsFiKu-35" value="Kalender Einstellungen" style="swimlane;fontStyle=1;align=center;verticalAlign=top;childLayout=stackLayout;horizontal=1;startSize=26;horizontalStack=0;resizeParent=1;resizeParentMax=0;resizeLast=0;collapsible=1;marginBottom=0;" vertex="1" parent="2xnOVREvFLB_lUJDa7KT-1">
                    <mxGeometry x="120" y="651" width="160" height="70" as="geometry"/>
                </mxCell>
                <mxCell id="eLnGJpbULJ3DvffsFiKu-36" value="startjahr&#10;startmonat" style="text;strokeColor=none;fillColor=none;align=left;verticalAlign=top;spacingLeft=4;spacingRight=4;overflow=hidden;rotatable=0;points=[[0,0.5],[1,0.5]];portConstraint=eastwest;" vertex="1" parent="eLnGJpbULJ3DvffsFiKu-35">
                    <mxGeometry y="26" width="160" height="44" as="geometry"/>
                </mxCell>
                <mxCell id="eLnGJpbULJ3DvffsFiKu-67" style="edgeStyle=orthogonalEdgeStyle;rounded=0;jumpStyle=arc;jumpSize=8;orthogonalLoop=1;jettySize=auto;html=1;exitX=0;exitY=0.5;exitDx=0;exitDy=0;entryX=1;entryY=0.5;entryDx=0;entryDy=0;startArrow=none;startFill=0;endArrow=none;endFill=0;endSize=10;" edge="1" parent="2xnOVREvFLB_lUJDa7KT-1" source="eLnGJpbULJ3DvffsFiKu-39" target="eLnGJpbULJ3DvffsFiKu-36">
                    <mxGeometry relative="1" as="geometry">
                        <Array as="points">
                            <mxPoint x="340" y="616"/>
                            <mxPoint x="340" y="699"/>
                        </Array>
                    </mxGeometry>
                </mxCell>
                <mxCell id="eLnGJpbULJ3DvffsFiKu-39" value="&lt;b&gt;Kalendertyp&lt;/b&gt;" style="html=1;" vertex="1" parent="2xnOVREvFLB_lUJDa7KT-1">
                    <mxGeometry x="380" y="601" width="160" height="30" as="geometry"/>
                </mxCell>
                <mxCell id="eLnGJpbULJ3DvffsFiKu-66" style="edgeStyle=orthogonalEdgeStyle;rounded=0;jumpStyle=arc;jumpSize=8;orthogonalLoop=1;jettySize=auto;html=1;exitX=0;exitY=0.5;exitDx=0;exitDy=0;entryX=1;entryY=0.5;entryDx=0;entryDy=0;startArrow=none;startFill=0;endArrow=none;endFill=0;endSize=10;" edge="1" parent="2xnOVREvFLB_lUJDa7KT-1" source="eLnGJpbULJ3DvffsFiKu-40" target="eLnGJpbULJ3DvffsFiKu-36">
                    <mxGeometry relative="1" as="geometry">
                        <Array as="points">
                            <mxPoint x="340" y="655"/>
                            <mxPoint x="340" y="699"/>
                        </Array>
                    </mxGeometry>
                </mxCell>
                <mxCell id="eLnGJpbULJ3DvffsFiKu-40" value="&lt;b&gt;Monatsformatierung&lt;/b&gt;" style="html=1;" vertex="1" parent="2xnOVREvFLB_lUJDa7KT-1">
                    <mxGeometry x="380" y="640" width="159" height="30" as="geometry"/>
                </mxCell>
                <mxCell id="eLnGJpbULJ3DvffsFiKu-46" style="edgeStyle=orthogonalEdgeStyle;rounded=0;jumpStyle=arc;jumpSize=8;orthogonalLoop=1;jettySize=auto;html=1;exitX=0;exitY=0.5;exitDx=0;exitDy=0;entryX=1;entryY=0.5;entryDx=0;entryDy=0;startArrow=none;startFill=0;endArrow=none;endFill=0;endSize=10;" edge="1" parent="2xnOVREvFLB_lUJDa7KT-1" source="eLnGJpbULJ3DvffsFiKu-41" target="eLnGJpbULJ3DvffsFiKu-36">
                    <mxGeometry relative="1" as="geometry">
                        <Array as="points">
                            <mxPoint x="380" y="699"/>
                        </Array>
                    </mxGeometry>
                </mxCell>
                <mxCell id="eLnGJpbULJ3DvffsFiKu-41" value="&lt;b&gt;Wochentagsformatierung&lt;/b&gt;" style="html=1;" vertex="1" parent="2xnOVREvFLB_lUJDa7KT-1">
                    <mxGeometry x="380" y="680" width="159" height="30" as="geometry"/>
                </mxCell>
                <mxCell id="eLnGJpbULJ3DvffsFiKu-44" style="edgeStyle=orthogonalEdgeStyle;rounded=0;jumpStyle=arc;jumpSize=8;orthogonalLoop=1;jettySize=auto;html=1;exitX=0;exitY=0.5;exitDx=0;exitDy=0;entryX=1;entryY=0.5;entryDx=0;entryDy=0;startArrow=none;startFill=0;endArrow=none;endFill=0;endSize=10;" edge="1" parent="2xnOVREvFLB_lUJDa7KT-1" source="eLnGJpbULJ3DvffsFiKu-42" target="eLnGJpbULJ3DvffsFiKu-36">
                    <mxGeometry relative="1" as="geometry">
                        <Array as="points">
                            <mxPoint x="340" y="775"/>
                            <mxPoint x="340" y="699"/>
                        </Array>
                    </mxGeometry>
                </mxCell>
                <mxCell id="eLnGJpbULJ3DvffsFiKu-42" value="&lt;b&gt;Sonntagsformatierung&lt;/b&gt;" style="html=1;" vertex="1" parent="2xnOVREvFLB_lUJDa7KT-1">
                    <mxGeometry x="380" y="760" width="159" height="30" as="geometry"/>
                </mxCell>
                <mxCell id="eLnGJpbULJ3DvffsFiKu-45" style="edgeStyle=orthogonalEdgeStyle;rounded=0;jumpStyle=arc;jumpSize=8;orthogonalLoop=1;jettySize=auto;html=1;exitX=0;exitY=0.5;exitDx=0;exitDy=0;entryX=1;entryY=0.5;entryDx=0;entryDy=0;startArrow=none;startFill=0;endArrow=none;endFill=0;endSize=10;" edge="1" parent="2xnOVREvFLB_lUJDa7KT-1" source="eLnGJpbULJ3DvffsFiKu-43" target="eLnGJpbULJ3DvffsFiKu-36">
                    <mxGeometry relative="1" as="geometry">
                        <Array as="points">
                            <mxPoint x="340" y="735"/>
                            <mxPoint x="340" y="699"/>
                        </Array>
                    </mxGeometry>
                </mxCell>
                <mxCell id="eLnGJpbULJ3DvffsFiKu-43" value="&lt;b&gt;Samstagsformatierung&lt;/b&gt;" style="html=1;" vertex="1" parent="2xnOVREvFLB_lUJDa7KT-1">
                    <mxGeometry x="380" y="720" width="159" height="30" as="geometry"/>
                </mxCell>
                <mxCell id="PerpSiJX2z2ElGPY05Ku-0" style="edgeStyle=orthogonalEdgeStyle;rounded=0;jumpStyle=arc;jumpSize=8;orthogonalLoop=1;jettySize=auto;html=1;exitX=0.5;exitY=0;exitDx=0;exitDy=0;entryX=1;entryY=0.5;entryDx=0;entryDy=0;startArrow=none;startFill=0;endArrow=none;endFill=0;endSize=10;" edge="1" parent="2xnOVREvFLB_lUJDa7KT-1" source="eLnGJpbULJ3DvffsFiKu-51" target="eLnGJpbULJ3DvffsFiKu-42">
                    <mxGeometry relative="1" as="geometry">
                        <Array as="points">
                            <mxPoint x="945" y="750"/>
                            <mxPoint x="570" y="750"/>
                            <mxPoint x="570" y="775"/>
                        </Array>
                    </mxGeometry>
                </mxCell>
                <mxCell id="PerpSiJX2z2ElGPY05Ku-1" style="edgeStyle=orthogonalEdgeStyle;rounded=0;jumpStyle=arc;jumpSize=8;orthogonalLoop=1;jettySize=auto;html=1;exitX=0.5;exitY=0;exitDx=0;exitDy=0;entryX=1;entryY=0.5;entryDx=0;entryDy=0;startArrow=none;startFill=0;endArrow=none;endFill=0;endSize=10;" edge="1" parent="2xnOVREvFLB_lUJDa7KT-1" source="eLnGJpbULJ3DvffsFiKu-51" target="eLnGJpbULJ3DvffsFiKu-43">
                    <mxGeometry relative="1" as="geometry">
                        <Array as="points">
                            <mxPoint x="945" y="750"/>
                            <mxPoint x="570" y="750"/>
                            <mxPoint x="570" y="735"/>
                        </Array>
                    </mxGeometry>
                </mxCell>
                <mxCell id="PerpSiJX2z2ElGPY05Ku-2" style="edgeStyle=orthogonalEdgeStyle;rounded=0;jumpStyle=arc;jumpSize=8;orthogonalLoop=1;jettySize=auto;html=1;exitX=0.5;exitY=0;exitDx=0;exitDy=0;entryX=1;entryY=0.5;entryDx=0;entryDy=0;startArrow=none;startFill=0;endArrow=none;endFill=0;endSize=10;" edge="1" parent="2xnOVREvFLB_lUJDa7KT-1" source="eLnGJpbULJ3DvffsFiKu-51" target="eLnGJpbULJ3DvffsFiKu-41">
                    <mxGeometry relative="1" as="geometry">
                        <Array as="points">
                            <mxPoint x="945" y="750"/>
                            <mxPoint x="570" y="750"/>
                            <mxPoint x="570" y="695"/>
                        </Array>
                    </mxGeometry>
                </mxCell>
                <mxCell id="PerpSiJX2z2ElGPY05Ku-3" style="edgeStyle=orthogonalEdgeStyle;rounded=0;jumpStyle=arc;jumpSize=8;orthogonalLoop=1;jettySize=auto;html=1;exitX=0.5;exitY=0;exitDx=0;exitDy=0;entryX=1;entryY=0.5;entryDx=0;entryDy=0;startArrow=none;startFill=0;endArrow=none;endFill=0;endSize=10;" edge="1" parent="2xnOVREvFLB_lUJDa7KT-1" source="eLnGJpbULJ3DvffsFiKu-51" target="eLnGJpbULJ3DvffsFiKu-40">
                    <mxGeometry relative="1" as="geometry">
                        <Array as="points">
                            <mxPoint x="945" y="750"/>
                            <mxPoint x="570" y="750"/>
                            <mxPoint x="570" y="655"/>
                        </Array>
                    </mxGeometry>
                </mxCell>
                <mxCell id="eLnGJpbULJ3DvffsFiKu-51" value="Schriftbild" style="html=1;fontStyle=1" vertex="1" parent="2xnOVREvFLB_lUJDa7KT-1">
                    <mxGeometry x="900" y="830" width="90" height="30" as="geometry"/>
                </mxCell>
                <mxCell id="eLnGJpbULJ3DvffsFiKu-54" style="edgeStyle=orthogonalEdgeStyle;rounded=0;jumpStyle=arc;jumpSize=8;orthogonalLoop=1;jettySize=auto;html=1;entryX=0.5;entryY=0;entryDx=0;entryDy=0;startArrow=none;startFill=0;endArrow=none;endFill=0;endSize=10;exitX=0;exitY=0.75;exitDx=0;exitDy=0;" edge="1" parent="2xnOVREvFLB_lUJDa7KT-1" source="3dWni5qiD89zcJHUJ88k-2" target="3dWni5qiD89zcJHUJ88k-4">
                    <mxGeometry relative="1" as="geometry">
                        <mxPoint x="546" y="865" as="sourcePoint"/>
                        <Array as="points">
                            <mxPoint x="590" y="683"/>
                            <mxPoint x="590" y="800"/>
                            <mxPoint x="705" y="800"/>
                        </Array>
                    </mxGeometry>
                </mxCell>
                <mxCell id="eLnGJpbULJ3DvffsFiKu-59" value="maskiert" style="text;html=1;align=center;verticalAlign=middle;resizable=0;points=[];autosize=1;strokeColor=none;rotation=0;" vertex="1" parent="2xnOVREvFLB_lUJDa7KT-1">
                    <mxGeometry x="641" y="780" width="60" height="20" as="geometry"/>
                </mxCell>
                <mxCell id="eLnGJpbULJ3DvffsFiKu-60" value="" style="triangle;aspect=fixed;fillColor=#000000;rotation=-180;" vertex="1" parent="2xnOVREvFLB_lUJDa7KT-1">
                    <mxGeometry x="640" y="784" width="6" height="12" as="geometry"/>
                </mxCell>
                <mxCell id="eLnGJpbULJ3DvffsFiKu-64" style="edgeStyle=orthogonalEdgeStyle;rounded=0;jumpStyle=arc;jumpSize=8;orthogonalLoop=1;jettySize=auto;html=1;entryX=0.5;entryY=0;entryDx=0;entryDy=0;startArrow=none;startFill=0;endArrow=none;endFill=0;endSize=10;exitX=0;exitY=0.75;exitDx=0;exitDy=0;" edge="1" parent="2xnOVREvFLB_lUJDa7KT-1" source="3dWni5qiD89zcJHUJ88k-0" target="3dWni5qiD89zcJHUJ88k-4">
                    <mxGeometry relative="1" as="geometry">
                        <mxPoint x="660" y="692.5" as="sourcePoint"/>
                        <mxPoint x="715" y="860" as="targetPoint"/>
                        <Array as="points">
                            <mxPoint x="590" y="633"/>
                            <mxPoint x="590" y="800"/>
                            <mxPoint x="705" y="800"/>
                        </Array>
                    </mxGeometry>
                </mxCell>
                <mxCell id="eLnGJpbULJ3DvffsFiKu-65" style="edgeStyle=orthogonalEdgeStyle;rounded=0;jumpStyle=arc;jumpSize=8;orthogonalLoop=1;jettySize=auto;html=1;entryX=0.5;entryY=0;entryDx=0;entryDy=0;startArrow=none;startFill=0;endArrow=none;endFill=0;endSize=10;exitX=0;exitY=0.75;exitDx=0;exitDy=0;" edge="1" parent="2xnOVREvFLB_lUJDa7KT-1" source="0LVePBlqfKj34DUhiKUy-12" target="3dWni5qiD89zcJHUJ88k-4">
                    <mxGeometry relative="1" as="geometry">
                        <mxPoint x="660" y="642.5" as="sourcePoint"/>
                        <mxPoint x="715" y="860" as="targetPoint"/>
                        <Array as="points">
                            <mxPoint x="590" y="583"/>
                            <mxPoint x="590" y="800"/>
                            <mxPoint x="705" y="800"/>
                        </Array>
                    </mxGeometry>
                </mxCell>
                <mxCell id="PerpSiJX2z2ElGPY05Ku-4" value="hat" style="text;html=1;align=center;verticalAlign=middle;resizable=0;points=[];autosize=1;strokeColor=none;" vertex="1" parent="2xnOVREvFLB_lUJDa7KT-1">
                    <mxGeometry x="706" y="730" width="30" height="20" as="geometry"/>
                </mxCell>
                <mxCell id="PerpSiJX2z2ElGPY05Ku-5" value="" style="triangle;aspect=fixed;fillColor=#000000;rotation=0;" vertex="1" parent="2xnOVREvFLB_lUJDa7KT-1">
                    <mxGeometry x="736" y="734" width="6" height="12" as="geometry"/>
                </mxCell>
                <mxCell id="PerpSiJX2z2ElGPY05Ku-6" value="hat" style="text;html=1;align=center;verticalAlign=middle;resizable=0;points=[];autosize=1;strokeColor=none;" vertex="1" parent="2xnOVREvFLB_lUJDa7KT-1">
                    <mxGeometry x="811" y="890" width="30" height="20" as="geometry"/>
                </mxCell>
                <mxCell id="PerpSiJX2z2ElGPY05Ku-9" value="" style="triangle;aspect=fixed;fillColor=#000000;rotation=0;" vertex="1" parent="2xnOVREvFLB_lUJDa7KT-1">
                    <mxGeometry x="838" y="893" width="6" height="12" as="geometry"/>
                </mxCell>
                <mxCell id="PerpSiJX2z2ElGPY05Ku-13" value="hat" style="text;html=1;align=center;verticalAlign=middle;resizable=0;points=[];autosize=1;strokeColor=none;" vertex="1" parent="2xnOVREvFLB_lUJDa7KT-1">
                    <mxGeometry x="290" y="680" width="30" height="20" as="geometry"/>
                </mxCell>
                <mxCell id="PerpSiJX2z2ElGPY05Ku-14" value="" style="triangle;aspect=fixed;fillColor=#000000;rotation=0;" vertex="1" parent="2xnOVREvFLB_lUJDa7KT-1">
                    <mxGeometry x="320" y="684" width="6" height="12" as="geometry"/>
                </mxCell>
                <mxCell id="PerpSiJX2z2ElGPY05Ku-15" value="" style="triangle;aspect=fixed;fillColor=#000000;rotation=90;" vertex="1" parent="2xnOVREvFLB_lUJDa7KT-1">
                    <mxGeometry x="210" y="628" width="6" height="12" as="geometry"/>
                </mxCell>
                <mxCell id="PerpSiJX2z2ElGPY05Ku-16" value="enthält" style="text;html=1;align=center;verticalAlign=middle;resizable=0;points=[];autosize=1;strokeColor=none;rotation=-90;" vertex="1" parent="2xnOVREvFLB_lUJDa7KT-1">
                    <mxGeometry x="188" y="599" width="50" height="20" as="geometry"/>
                </mxCell>
                <mxCell id="PerpSiJX2z2ElGPY05Ku-17" value="SVG-Generator" style="html=1;fontStyle=1" vertex="1" parent="2xnOVREvFLB_lUJDa7KT-1">
                    <mxGeometry x="560" y="270" width="160" height="50" as="geometry"/>
                </mxCell>
                <mxCell id="PerpSiJX2z2ElGPY05Ku-19" value="basiert auf" style="text;html=1;align=center;verticalAlign=middle;resizable=0;points=[];autosize=1;strokeColor=none;rotation=0;" vertex="1" parent="2xnOVREvFLB_lUJDa7KT-1">
                    <mxGeometry x="533" y="351" width="70" height="20" as="geometry"/>
                </mxCell>
                <mxCell id="PerpSiJX2z2ElGPY05Ku-20" value="" style="triangle;aspect=fixed;fillColor=#000000;rotation=-180;" vertex="1" parent="2xnOVREvFLB_lUJDa7KT-1">
                    <mxGeometry x="530" y="355" width="6" height="12" as="geometry"/>
                </mxCell>
                <mxCell id="PerpSiJX2z2ElGPY05Ku-21" value="Designobjekt" style="swimlane;fontStyle=1;align=center;verticalAlign=top;childLayout=stackLayout;horizontal=1;startSize=26;horizontalStack=0;resizeParent=1;resizeParentMax=0;resizeLast=0;collapsible=1;marginBottom=0;" vertex="1" parent="2xnOVREvFLB_lUJDa7KT-1">
                    <mxGeometry x="560" y="463" width="120" height="90" as="geometry"/>
                </mxCell>
                <mxCell id="PerpSiJX2z2ElGPY05Ku-22" value="Position&#10;Rotation&#10;Breite&#10;Höhe" style="text;strokeColor=none;fillColor=none;align=left;verticalAlign=top;spacingLeft=4;spacingRight=4;overflow=hidden;rotatable=0;points=[[0,0.5],[1,0.5]];portConstraint=eastwest;" vertex="1" parent="PerpSiJX2z2ElGPY05Ku-21">
                    <mxGeometry y="26" width="120" height="64" as="geometry"/>
                </mxCell>
                <mxCell id="PerpSiJX2z2ElGPY05Ku-26" value="" style="triangle;aspect=fixed;fillColor=#000000;rotation=-180;" vertex="1" parent="2xnOVREvFLB_lUJDa7KT-1">
                    <mxGeometry x="414" y="1036" width="6" height="12" as="geometry"/>
                </mxCell>
                <mxCell id="PerpSiJX2z2ElGPY05Ku-27" value="basiert auf" style="text;html=1;align=center;verticalAlign=middle;resizable=0;points=[];autosize=1;strokeColor=none;" vertex="1" parent="2xnOVREvFLB_lUJDa7KT-1">
                    <mxGeometry x="417" y="1031" width="70" height="20" as="geometry"/>
                </mxCell>
                <mxCell id="PerpSiJX2z2ElGPY05Ku-28" value="Polygon" style="swimlane;fontStyle=1;align=center;verticalAlign=top;childLayout=stackLayout;horizontal=1;startSize=26;horizontalStack=0;resizeParent=1;resizeParentMax=0;resizeLast=0;collapsible=1;marginBottom=0;" vertex="1" parent="2xnOVREvFLB_lUJDa7KT-1">
                    <mxGeometry x="1330" y="425" width="119" height="52" as="geometry"/>
                </mxCell>
                <mxCell id="PerpSiJX2z2ElGPY05Ku-29" value="pfadpunkte" style="text;strokeColor=none;fillColor=none;align=left;verticalAlign=top;spacingLeft=4;spacingRight=4;overflow=hidden;rotatable=0;points=[[0,0.5],[1,0.5]];portConstraint=eastwest;" vertex="1" parent="PerpSiJX2z2ElGPY05Ku-28">
                    <mxGeometry y="26" width="119" height="26" as="geometry"/>
                </mxCell>
                <mxCell id="PerpSiJX2z2ElGPY05Ku-32" value="Bild" style="swimlane;fontStyle=1;align=center;verticalAlign=top;childLayout=stackLayout;horizontal=1;startSize=26;horizontalStack=0;resizeParent=1;resizeParentMax=0;resizeLast=0;collapsible=1;marginBottom=0;" vertex="1" parent="2xnOVREvFLB_lUJDa7KT-1">
                    <mxGeometry x="1330" y="517" width="119" height="70" as="geometry"/>
                </mxCell>
                <mxCell id="PerpSiJX2z2ElGPY05Ku-33" value="bildquelle&#10;maske" style="text;strokeColor=none;fillColor=none;align=left;verticalAlign=top;spacingLeft=4;spacingRight=4;overflow=hidden;rotatable=0;points=[[0,0.5],[1,0.5]];portConstraint=eastwest;" vertex="1" parent="PerpSiJX2z2ElGPY05Ku-32">
                    <mxGeometry y="26" width="119" height="44" as="geometry"/>
                </mxCell>
                <mxCell id="PerpSiJX2z2ElGPY05Ku-34" value="Text" style="swimlane;fontStyle=1;align=center;verticalAlign=top;childLayout=stackLayout;horizontal=1;startSize=22;horizontalStack=0;resizeParent=1;resizeParentMax=0;resizeLast=0;collapsible=1;marginBottom=0;" vertex="1" parent="2xnOVREvFLB_lUJDa7KT-1">
                    <mxGeometry x="1330" y="628" width="119" height="220" as="geometry"/>
                </mxCell>
                <mxCell id="PerpSiJX2z2ElGPY05Ku-35" value="inhalt&#10;schriftart&#10;schriftschnitt&#10;ausrichtung" style="text;strokeColor=none;fillColor=none;align=left;verticalAlign=top;spacingLeft=4;spacingRight=4;overflow=hidden;rotatable=0;points=[[0,0.5],[1,0.5]];portConstraint=eastwest;" vertex="1" parent="PerpSiJX2z2ElGPY05Ku-34">
                    <mxGeometry y="22" width="119" height="198" as="geometry"/>
                </mxCell>
            </root>
        </mxGraphModel>
    </diagram>
    <diagram id="cnoS2UUWKQNlPvZDs1Pg" name="User">
        <mxGraphModel dx="1591" dy="719" grid="1" gridSize="10" guides="1" tooltips="1" connect="1" arrows="1" fold="1" page="1" pageScale="1" pageWidth="827" pageHeight="1169" math="0" shadow="0">
            <root>
                <mxCell id="zFhsLewfRpTGg3Kz0AcU-0"/>
                <mxCell id="zFhsLewfRpTGg3Kz0AcU-1" parent="zFhsLewfRpTGg3Kz0AcU-0"/>
            </root>
        </mxGraphModel>
    </diagram>
    <diagram id="0dPMPgIy3__RMTc7_vVz" name="Produktkonfig.">
        <mxGraphModel dx="1591" dy="719" grid="1" gridSize="10" guides="1" tooltips="1" connect="1" arrows="1" fold="1" page="1" pageScale="1" pageWidth="827" pageHeight="1169" math="0" shadow="0">
            <root>
                <mxCell id="nF4SsbE-XYthvJibB2cA-0"/>
                <mxCell id="nF4SsbE-XYthvJibB2cA-1" parent="nF4SsbE-XYthvJibB2cA-0"/>
            </root>
        </mxGraphModel>
    </diagram>
    <diagram id="vjPERhE7kUwOuGdRQw0J" name="Order">
        <mxGraphModel dx="1591" dy="719" grid="1" gridSize="10" guides="1" tooltips="1" connect="1" arrows="1" fold="1" page="1" pageScale="1" pageWidth="827" pageHeight="1169" math="0" shadow="0">
            <root>
                <mxCell id="8lYHewjG6JSI25VvrdCb-0"/>
                <mxCell id="8lYHewjG6JSI25VvrdCb-1" parent="8lYHewjG6JSI25VvrdCb-0"/>
            </root>
        </mxGraphModel>
    </diagram>
</mxfile>